<!-- icon666.com - MILLIONS vector ICONS FREE --><svg viewBox="0 0 64 64" xmlns="http://www.w3.org/2000/svg" xmlns:xlink="http://www.w3.org/1999/xlink"><linearGradient id="linear-gradient" gradientTransform="matrix(-1 0 0 -1 64 64)" gradientUnits="userSpaceOnUse" x1="-32.2" x2="56.14" y1="-10.44" y2="77.9"><stop offset="0" stop-color="#9cecfb"></stop><stop offset=".51" stop-color="#65c7f7"></stop><stop offset="1" stop-color="#0052d4"></stop></linearGradient><linearGradient id="linear-gradient-2" x1="-21.32" x2="67.02" xlink:href="#linear-gradient" y1="-21.32" y2="67.02"></linearGradient><g id="Gradient"><path d="m27.05 32.71 26 26a1 1 0 0 0 1.42 0l4.24-4.24a1 1 0 0 0 0-1.42l-21.05-21.05 21.05-21a1 1 0 0 0 0-1.42l-4.24-4.29a1 1 0 0 0 -1.42 0l-26 26a1 1 0 0 0 0 1.42zm26.71-25.3 2.83 2.83-21.05 21a1 1 0 0 0 0 1.42l21.05 21-2.83 2.83-24.59-24.49z" fill="url(#linear-gradient)" style="fill: rgb(188, 103, 103);"></path><path d="m5.29 32.71 26 26a1 1 0 0 0 1.42 0l4.29-4.24a1 1 0 0 0 0-1.42l-21.1-21.05 21.1-21a1 1 0 0 0 0-1.42l-4.29-4.29a1 1 0 0 0 -1.42 0l-26 26a1 1 0 0 0 0 1.42zm26.71-25.3 2.83 2.83-21 21a1 1 0 0 0 0 1.42l21 21-2.83 2.93-24.59-24.59z" fill="url(#linear-gradient-2)" style="fill: rgb(188, 103, 103);"></path></g></svg>