<svg width="100.000000" height="100.000000" viewBox="0 0 100 100" fill="none" xmlns="http://www.w3.org/2000/svg" xmlns:xlink="http://www.w3.org/1999/xlink">
	<desc>
			Created with Pixso.
	</desc>
	<defs>
		<clipPath id="clip1_73">
			<rect id="Right" width="100.000000" height="100.000000" transform="translate(100.000000 100.000000) rotate(179.999985)" fill="white" fill-opacity="0"/>
		</clipPath>
		<linearGradient id="paint_linear_1_74_0" x1="91.666740" y1="73.423492" x2="41.694901" y2="63.738831" gradientUnits="userSpaceOnUse">
			<stop stop-color="#AB5BFB"/>
			<stop offset="1.000000" stop-color="#7690EA"/>
		</linearGradient>
	</defs>
	<rect id="Right" width="100.000000" height="100.000000" transform="translate(100.000000 100.000000) rotate(179.999985)" fill="#FFFFFF" fill-opacity="0"/>
	<g clip-path="url(#clip1_73)">
		<path id="Vector" d="M50 8.33C26.98 8.33 8.33 26.98 8.33 50C8.33 73.01 26.98 91.66 50 91.66C73.01 91.66 91.66 73.01 91.66 50C91.66 26.98 73.01 8.33 50 8.33ZM41.54 64.7C40.95 64.12 40.62 63.32 40.62 62.5C40.62 61.67 40.95 60.87 41.54 60.29L51.83 50L41.54 39.7C41.23 39.42 40.98 39.07 40.81 38.69C40.64 38.31 40.55 37.89 40.54 37.47C40.54 37.05 40.61 36.64 40.77 36.25C40.93 35.86 41.16 35.5 41.46 35.21C41.75 34.91 42.11 34.68 42.5 34.52C42.89 34.36 43.3 34.29 43.72 34.29C44.14 34.3 44.56 34.39 44.94 34.56C45.32 34.73 45.67 34.98 45.95 35.29L58.45 47.79C59.04 48.37 59.37 49.17 59.37 50C59.37 50.82 59.04 51.62 58.45 52.2L45.95 64.7C45.37 65.29 44.57 65.62 43.75 65.62C42.92 65.62 42.12 65.29 41.54 64.7Z" fill="url(#paint_linear_1_74_0)" fill-opacity="1.000000" fill-rule="evenodd"/>
	</g>
</svg>
