<svg width="100.000000" height="100.000000" viewBox="0 0 100 100" fill="none" xmlns="http://www.w3.org/2000/svg" xmlns:xlink="http://www.w3.org/1999/xlink">
	<desc>
			Created with Pixso.
	</desc>
	<defs>
		<clipPath id="clip1_119">
			<rect id="Left" width="100.000000" height="100.000000" fill="white" fill-opacity="0"/>
		</clipPath>
		<linearGradient id="paint_linear_1_120_0" x1="8.333014" y1="26.576508" x2="58.304852" y2="36.261177" gradientUnits="userSpaceOnUse">
			<stop stop-color="#AB5BFB"/>
			<stop offset="1.000000" stop-color="#7690EA"/>
		</linearGradient>
	</defs>
	<rect id="Left" width="100.000000" height="100.000000" fill="#FFFFFF" fill-opacity="0"/>
	<g clip-path="url(#clip1_119)">
		<path id="Vector" d="M49.99 91.66C73.01 91.66 91.66 73.01 91.66 50C91.66 26.98 73.01 8.33 49.99 8.33C26.98 8.33 8.33 26.98 8.33 50C8.33 73.01 26.98 91.66 49.99 91.66ZM58.45 35.29C59.04 35.87 59.37 36.67 59.37 37.5C59.37 38.32 59.04 39.12 58.45 39.7L48.16 50L58.45 60.29C58.76 60.57 59.01 60.92 59.18 61.3C59.35 61.68 59.44 62.1 59.45 62.52C59.45 62.94 59.38 63.35 59.22 63.74C59.06 64.13 58.83 64.49 58.53 64.78C58.24 65.08 57.88 65.31 57.49 65.47C57.1 65.63 56.69 65.7 56.27 65.7C55.85 65.69 55.43 65.6 55.05 65.43C54.67 65.26 54.32 65.01 54.04 64.7L41.54 52.2C40.95 51.62 40.62 50.82 40.62 50C40.62 49.17 40.95 48.37 41.54 47.79L54.04 35.29C54.62 34.7 55.42 34.37 56.24 34.37C57.07 34.37 57.87 34.7 58.45 35.29Z" fill="url(#paint_linear_1_120_0)" fill-opacity="1.000000" fill-rule="evenodd"/>
	</g>
</svg>
